<svg width="220" height="40" viewBox="0 0 220 40" fill="none" xmlns="http://www.w3.org/2000/svg">
<path d="M57.476 32.38C55.4747 32.38 53.6507 31.9747 52.004 31.164C50.3573 30.3533 49.04 29.1373 48.052 27.516C47.0893 25.8693 46.6207 23.8427 46.646 21.436C46.6713 19.0547 47.1527 17.028 48.09 15.356C49.0527 13.684 50.3573 12.4173 52.004 11.556C53.6507 10.6693 55.5127 10.226 57.59 10.226C59.642 10.226 61.39 10.5933 62.834 11.328C64.278 12.0627 65.4053 13.0507 66.216 14.292C67.052 15.5333 67.5967 16.9013 67.85 18.396H63.1C62.948 17.332 62.568 16.534 61.96 16.002C61.352 15.4447 60.6427 15.0647 59.832 14.862C59.0467 14.6593 58.2993 14.558 57.59 14.558C55.4873 14.558 53.8913 15.128 52.802 16.268C51.7127 17.408 51.168 19.0167 51.168 21.094C51.168 23.3233 51.7 25.046 52.764 26.262C53.828 27.478 55.424 28.086 57.552 28.086C58.312 28.086 59.0847 27.972 59.87 27.744C60.6807 27.516 61.39 27.1107 61.998 26.528C62.6313 25.92 63.024 25.084 63.176 24.02H67.926C67.6727 25.54 67.128 26.946 66.292 28.238C65.456 29.5047 64.3033 30.518 62.834 31.278C61.39 32.0127 59.604 32.38 57.476 32.38ZM70.6798 32V10.606H75.3918V19.46H75.4678C75.4931 19.4347 75.5691 19.2573 75.6958 18.928C75.8478 18.5987 76.1011 18.244 76.4558 17.864C76.8105 17.4587 77.3045 17.104 77.9378 16.8C78.5711 16.496 79.3818 16.344 80.3698 16.344C81.4591 16.344 82.3585 16.5467 83.0678 16.952C83.7771 17.332 84.3345 17.8387 84.7398 18.472C85.1451 19.1053 85.4365 19.802 85.6138 20.562C85.7911 21.2967 85.9051 22.006 85.9558 22.69C86.0065 23.374 86.0318 23.9567 86.0318 24.438V32H81.5478V24.4C81.5478 23.716 81.4845 23.07 81.3578 22.462C81.2311 21.854 80.9525 21.36 80.5218 20.98C80.1165 20.5747 79.4578 20.372 78.5458 20.372C77.6085 20.372 76.9118 20.5747 76.4558 20.98C76.0251 21.3853 75.7338 21.9047 75.5818 22.538C75.4551 23.146 75.3918 23.8047 75.3918 24.514V32H70.6798ZM96.564 32.38C94.7147 32.38 93.2074 32 92.042 31.24C90.902 30.48 90.066 29.492 89.534 28.276C89.002 27.06 88.7107 25.7933 88.66 24.476C88.6347 22.8293 88.9387 21.3853 89.572 20.144C90.2054 18.9027 91.1047 17.94 92.27 17.256C93.4607 16.572 94.8414 16.23 96.412 16.23C97.856 16.23 99.148 16.534 100.288 17.142C101.428 17.75 102.327 18.624 102.986 19.764C103.645 20.8787 103.987 22.2087 104.012 23.754C104.012 23.7793 104.012 23.9187 104.012 24.172C104.012 24.4253 104.012 24.6153 104.012 24.742H93.03C93.03 26.034 93.334 26.9967 93.942 27.63C94.5754 28.2633 95.4114 28.58 96.45 28.58C97.3114 28.58 98.008 28.3773 98.54 27.972C99.0974 27.5667 99.4267 27.0347 99.528 26.376H103.974C103.873 27.4653 103.531 28.4787 102.948 29.416C102.365 30.328 101.542 31.05 100.478 31.582C99.414 32.114 98.1094 32.38 96.564 32.38ZM93.106 22.804H99.414C99.414 22.7027 99.3887 22.5 99.338 22.196C99.2874 21.892 99.1607 21.5753 98.958 21.246C98.7554 20.8913 98.4387 20.5873 98.008 20.334C97.6027 20.0807 97.0327 19.954 96.298 19.954C95.5887 19.954 95.0187 20.068 94.588 20.296C94.1574 20.524 93.8407 20.8153 93.638 21.17C93.4354 21.4993 93.296 21.8287 93.22 22.158C93.144 22.462 93.106 22.6773 93.106 22.804ZM106.967 32V16.344H111.299L111.603 20.904L111.565 24.286V32H106.967ZM111.565 25.502L111.451 22.006C111.451 21.4993 111.54 20.9293 111.717 20.296C111.92 19.6373 112.237 19.0167 112.667 18.434C113.123 17.826 113.744 17.332 114.529 16.952C115.34 16.5467 116.328 16.344 117.493 16.344H117.949V21.436H117.455C116.442 21.436 115.555 21.4993 114.795 21.626C114.061 21.7273 113.453 21.93 112.971 22.234C112.515 22.538 112.161 22.956 111.907 23.488C111.679 24.02 111.565 24.6913 111.565 25.502ZM120.549 32V16.344H124.881L125.185 20.904L125.147 24.286V32H120.549ZM125.147 25.502L125.033 22.006C125.033 21.4993 125.122 20.9293 125.299 20.296C125.502 19.6373 125.819 19.0167 126.249 18.434C126.705 17.826 127.326 17.332 128.111 16.952C128.922 16.5467 129.91 16.344 131.075 16.344H131.531V21.436H131.037C130.024 21.436 129.137 21.4993 128.377 21.626C127.643 21.7273 127.035 21.93 126.553 22.234C126.097 22.538 125.743 22.956 125.489 23.488C125.261 24.02 125.147 24.6913 125.147 25.502ZM133.021 39.41V35.876H135.567C135.921 35.876 136.251 35.8507 136.555 35.8C136.884 35.7493 137.188 35.572 137.467 35.268C137.771 34.964 138.087 34.4447 138.417 33.71L139.177 32.038L133.059 16.344H137.771L141.381 27.364L145.295 16.344H150.007L142.635 34.128C142.128 35.2933 141.659 36.218 141.229 36.902C140.823 37.6113 140.393 38.1433 139.937 38.498C139.481 38.8527 138.961 39.0933 138.379 39.22C137.796 39.3467 137.087 39.41 136.251 39.41H133.021ZM152.212 32V10.606H156.658V32H152.212ZM160.265 32V16.344H164.863V32H160.265ZM162.545 14.482C161.583 14.482 160.937 14.2413 160.607 13.76C160.278 13.2533 160.113 12.6833 160.113 12.05C160.113 11.442 160.278 10.8973 160.607 10.416C160.937 9.93467 161.583 9.694 162.545 9.694C163.508 9.694 164.141 9.93467 164.445 10.416C164.749 10.8973 164.901 11.442 164.901 12.05C164.901 12.6833 164.749 13.2533 164.445 13.76C164.141 14.2413 163.508 14.482 162.545 14.482ZM167.973 32V16.344H171.925L172.685 19.46H172.761C172.787 19.4347 172.875 19.2573 173.027 18.928C173.179 18.5987 173.433 18.244 173.787 17.864C174.167 17.4587 174.687 17.104 175.345 16.8C176.004 16.496 176.84 16.344 177.853 16.344C178.968 16.344 179.88 16.534 180.589 16.914C181.299 17.294 181.843 17.8007 182.223 18.434C182.603 19.042 182.857 19.7133 182.983 20.448C183.135 21.1827 183.224 21.9047 183.249 22.614C183.275 23.298 183.287 23.906 183.287 24.438V32H178.841V24.4C178.841 23.716 178.778 23.07 178.651 22.462C178.525 21.854 178.246 21.36 177.815 20.98C177.41 20.5747 176.739 20.372 175.801 20.372C174.889 20.372 174.205 20.5747 173.749 20.98C173.319 21.3853 173.027 21.9047 172.875 22.538C172.749 23.146 172.685 23.8047 172.685 24.514V32H167.973ZM190.72 32H186.122V10.606H190.72V32ZM194.33 20.676L202.196 32H196.724L190.986 23.906L194.33 20.676ZM190.644 28.276V23.222L196.496 16.23H202.044L190.644 28.276Z" fill="white"/>
<path fill-rule="evenodd" clip-rule="evenodd" d="M39.6493 14.3657C39.65 14.3671 39.6507 14.3698 39.6507 14.3698L39.65 14.3691C39.9423 15.28 40.0524 16.2266 39.977 17.1813C39.9016 18.1366 39.6433 19.0529 39.2109 19.906C38.7778 20.7591 38.1919 21.5059 37.4678 22.1268C36.7444 22.7478 35.9183 23.2114 35.014 23.5054C34.0671 23.8135 32.9186 23.9709 31.7168 23.9709C30.9006 23.9709 30.0598 23.8983 29.2403 23.7516C29.0548 23.7186 28.8719 23.6816 28.6918 23.6413C28.8739 23.7206 29.0568 23.8054 29.2403 23.8956C31.0755 24.7978 32.7531 26.1413 33.7274 27.4882V27.4888C34.286 28.2625 34.6817 29.1277 34.9033 30.0588C35.1248 30.99 35.1615 31.9413 35.012 32.8872C34.8632 33.8324 34.5349 34.7252 34.0371 35.5413C33.5399 36.3567 32.8973 37.0543 32.1272 37.6154C30.8826 38.5237 29.4151 39 27.9063 39C27.5286 39 27.1489 38.9704 26.7685 38.9098C24.87 38.6084 23.1983 37.5818 22.0625 36.0183C22.0617 36.0165 22.0605 36.0151 22.0595 36.0137C22.0589 36.013 22.0583 36.0123 22.0578 36.0115C21.0842 34.6451 20.3335 32.6134 20.0485 30.5769C20.0111 30.3131 19.9838 30.0535 19.9631 29.7978C19.9424 30.0588 19.9137 30.3232 19.8757 30.5924C19.5887 32.6288 18.8333 34.6472 17.855 35.9914C16.7179 37.5542 15.0449 38.5795 13.1456 38.8782C12.7699 38.9374 12.3929 38.9664 12.0192 38.9664C10.5057 38.9664 9.03556 38.4873 7.78832 37.573C7.02022 37.014 6.37758 36.3163 5.87976 35.5002C5.38193 34.6842 5.05427 33.7907 4.90545 32.8448C4.75664 31.8989 4.79401 30.9469 5.0169 30.0158C5.23979 29.0847 5.63618 28.2208 6.19674 27.4471C7.18105 26.0888 8.87406 24.7386 10.7259 23.8357C10.9154 23.7435 11.1049 23.6567 11.2931 23.5753C11.1023 23.6177 10.9074 23.6567 10.7092 23.6917C9.90376 23.8337 9.0776 23.9036 8.27547 23.9036C7.07294 23.9036 5.92513 23.7469 4.98086 23.4388C4.0773 23.1454 3.25181 22.6812 2.52842 22.0602C1.80504 21.4393 1.21912 20.6918 0.786693 19.8387C0.354263 18.9863 0.097341 18.0693 0.0226 17.114C-0.052141 16.1593 0.0586358 15.2134 0.352928 14.3018C0.950856 12.4577 2.22546 10.9588 3.94049 10.0808C5.65553 9.20287 7.60747 9.05015 9.43662 9.65093C11.0249 10.1676 12.828 11.3679 14.2567 12.8601C14.3282 12.9347 14.3982 13.0101 14.467 13.0854C14.4156 12.9946 14.3655 12.9024 14.3161 12.8089C13.3572 10.9931 12.7853 8.91627 12.7853 7.25182C12.7893 5.31087 13.542 3.489 14.9041 2.11991C16.2641 0.752833 18.0705 0 19.9918 0H20.0051H20.0325C20.9694 0 21.8837 0.180976 22.7519 0.536873C23.6314 0.899498 24.4202 1.42426 25.0955 2.09838C25.7709 2.7725 26.3001 3.56166 26.6684 4.44501C27.0368 5.32904 27.2263 6.26217 27.231 7.2202C27.231 8.90416 26.6511 10.9978 25.6794 12.8258C25.5954 12.9839 25.5086 13.1379 25.4205 13.2893C25.5386 13.1561 25.6601 13.0242 25.7862 12.893C27.2043 11.419 28.9894 10.2315 30.561 9.71686C32.3901 9.1181 34.3427 9.27149 36.0578 10.1488C37.7728 11.0261 39.0481 12.5237 39.6493 14.3657ZM16.0819 3.31139C15.0349 4.36361 14.4569 5.76365 14.4536 7.25384L14.4529 7.25317C14.4529 8.65254 14.9521 10.4347 15.7883 12.0184C16.3708 13.1224 17.0709 14.0314 17.8023 14.6557V11.8832C17.8023 11.3026 18.0265 10.7563 18.4342 10.3459C18.7839 9.99337 19.2324 9.77674 19.7168 9.72292C19.831 9.68861 19.9511 9.67852 20.0699 9.69466C20.1192 9.69937 20.1686 9.70812 20.216 9.7209C20.7092 9.77001 21.167 9.98799 21.5226 10.3466C21.9297 10.7576 22.1539 11.3033 22.1539 11.8839V14.688C22.8987 14.069 23.6127 13.1534 24.2086 12.0326C25.0568 10.4381 25.5627 8.6411 25.5627 7.22626C25.5593 6.49495 25.4138 5.77778 25.1309 5.09895C24.8479 4.42012 24.4415 3.81328 23.9224 3.29592C23.4032 2.77788 22.7972 2.37422 22.1212 2.09636C21.4779 1.83129 20.8006 1.6927 20.1066 1.68328C20.0365 1.69202 19.9631 1.69202 19.893 1.68328C18.4536 1.70817 17.1042 2.28407 16.0819 3.31139ZM5.49404 21.8382C6.82203 22.2715 8.66386 22.3448 10.4223 22.0353L10.4216 22.0333C11.6442 21.818 12.7192 21.4319 13.5354 20.928L10.9141 20.0648C10.6465 19.978 10.3989 19.8387 10.182 19.6531C9.96515 19.4674 9.78964 19.2433 9.65951 18.9877C9.52938 18.7327 9.45197 18.4575 9.42928 18.1709C9.40726 17.889 9.43929 17.6085 9.52471 17.3374C9.53138 17.3152 9.53939 17.2936 9.54807 17.2721C9.63549 17.0232 9.76629 16.7944 9.93712 16.5919C10.1226 16.3719 10.3462 16.1943 10.6011 16.0631C10.8554 15.9326 11.129 15.8546 11.4146 15.8324C11.7009 15.8102 11.9832 15.8445 12.2548 15.9346L14.9321 16.8099C14.5771 15.9071 13.9318 14.9423 13.0562 14.0273C11.8083 12.7242 10.2628 11.6861 8.92145 11.2494C8.35555 11.0638 7.77497 10.9716 7.19707 10.9716C6.33754 10.9716 5.48403 11.1754 4.69591 11.5791C3.37794 12.2539 2.39896 13.4057 1.93984 14.8225C1.71428 15.5209 1.62886 16.2475 1.68625 16.9808C1.74364 17.7141 1.94117 18.4178 2.27284 19.0731C2.6045 19.7284 3.05428 20.3023 3.61017 20.7793C4.16605 21.2563 4.79935 21.6128 5.49404 21.8382ZM16.5103 34.997C17.3331 33.8654 17.9744 32.131 18.224 30.3562L18.2247 30.3555C18.3995 29.1176 18.3642 27.9679 18.1353 27.0293L16.5163 29.2569C16.3488 29.491 16.1406 29.6855 15.897 29.8362C15.6528 29.9875 15.3852 30.0871 15.1016 30.1315C14.8193 30.1766 14.5344 30.1638 14.2554 30.0952C13.9771 30.0272 13.7189 29.9048 13.488 29.7332C13.0275 29.3948 12.7226 28.8916 12.6325 28.319C12.543 27.7465 12.6792 27.1726 13.0168 26.7037L14.6692 24.417C13.7035 24.4768 12.5904 24.7957 11.4526 25.3508C9.83569 26.1393 8.3749 27.2944 7.54408 28.4401C7.11432 29.0335 6.80935 29.6969 6.63851 30.4114C6.46767 31.1259 6.43898 31.8565 6.55309 32.5824C6.6672 33.3083 6.91879 33.9939 7.3005 34.6202C7.68221 35.2466 8.17537 35.7828 8.76662 36.2127C9.96515 37.0907 11.4286 37.4472 12.8887 37.2171C14.3495 36.9871 15.6355 36.1986 16.5103 34.997ZM19.9624 27.9214C20.0679 26.7138 20.3848 25.6555 20.9067 24.8274H20.9047C21.0528 24.5926 21.3064 24.4466 21.5827 24.4378C21.8576 24.4297 22.1212 24.5582 22.2834 24.7836L24.8019 28.276C24.8419 28.3318 24.8893 28.3762 24.9447 28.4105C25.0001 28.4449 25.0608 28.4677 25.1249 28.4778C25.1883 28.4879 25.253 28.4852 25.3157 28.4698C25.3524 28.461 25.3885 28.4469 25.4232 28.428C25.4766 28.3823 25.5353 28.3426 25.5967 28.3096C25.616 28.2881 25.6334 28.2652 25.6481 28.241C25.6821 28.1852 25.7048 28.1246 25.7148 28.06C25.7248 27.9954 25.7221 27.9309 25.7075 27.8676C25.6921 27.8044 25.6654 27.7458 25.6274 27.6934L23.1229 24.236C22.9587 24.0093 22.9174 23.7153 23.0128 23.4515C23.1082 23.1878 23.3278 22.9893 23.598 22.9227C24.4702 22.7074 25.4759 22.7189 26.5516 22.9449C25.5139 22.478 24.6691 21.8692 24.0792 21.15C23.903 20.9354 23.8436 20.6467 23.921 20.379C23.9984 20.1112 24.202 19.9 24.4649 19.8138L28.5436 18.4811C28.607 18.4602 28.6631 18.4286 28.7118 18.3869C28.7612 18.3445 28.8012 18.2941 28.8306 18.2362C28.8599 18.1783 28.8773 18.1158 28.8826 18.0512C28.8866 18.0041 28.8826 17.955 28.8713 17.9052C28.8493 17.8406 28.8339 17.7753 28.8259 17.7094C28.8186 17.6989 28.8101 17.6885 28.8021 17.6785L28.7999 17.6758C28.7578 17.626 28.7071 17.5856 28.6497 17.556C28.5917 17.5257 28.5296 17.5083 28.4655 17.5035C28.4008 17.4982 28.3367 17.5062 28.2754 17.5264L24.2213 18.8599C23.9584 18.946 23.6694 18.8955 23.4506 18.724C23.2317 18.5524 23.1115 18.2826 23.1302 18.0041C23.1896 17.1019 23.5066 16.1425 24.0492 15.1825C23.2957 16.0113 22.4709 16.6168 21.6221 16.9512C21.524 16.9902 21.4212 17.0091 21.3191 17.0091C21.1536 17.0091 20.9894 16.9593 20.8486 16.8624C20.6211 16.7056 20.4849 16.4459 20.4849 16.1681V11.8832C20.4849 11.752 20.4342 11.6282 20.3421 11.5354C20.25 11.4425 20.1273 11.3914 19.9971 11.3914H19.9771H19.9571C19.829 11.3914 19.7042 11.4425 19.6121 11.5354C19.52 11.6282 19.4693 11.752 19.4693 11.8832V16.1614C19.4693 16.4412 19.3311 16.7029 19.1002 16.859C18.87 17.0151 18.5777 17.0454 18.3201 16.9398C17.54 16.6188 16.7819 16.0692 16.0819 15.3291C16.5717 16.2461 16.8533 17.1584 16.9027 18.0189C16.9187 18.2961 16.7979 18.5632 16.5797 18.7327C16.3622 18.9022 16.0752 18.9527 15.813 18.8673L11.7342 17.5345C11.6695 17.513 11.6054 17.5056 11.5407 17.5103C11.4767 17.515 11.4146 17.5325 11.3572 17.5621C11.2991 17.5924 11.2484 17.632 11.2071 17.6818C11.165 17.7316 11.1336 17.7888 11.1143 17.8507C11.1125 17.8574 11.1101 17.8641 11.1078 17.8709C11.1066 17.8742 11.1054 17.8776 11.1043 17.881C11.0916 17.9321 11.0876 17.9846 11.0916 18.0371C11.0969 18.1023 11.1143 18.1642 11.1437 18.2221C11.173 18.2799 11.2131 18.3311 11.2618 18.3728C11.3112 18.4152 11.3672 18.4461 11.4286 18.4663L15.4773 19.8004C15.7416 19.8879 15.9458 20.1018 16.0212 20.3716C16.0966 20.642 16.0338 20.932 15.8537 21.1453C15.2597 21.849 14.4162 22.4437 13.3852 22.9005C14.4937 22.6678 15.528 22.6637 16.4209 22.8985C16.6878 22.9685 16.9034 23.1676 16.9961 23.4293C17.0889 23.691 17.0469 23.9824 16.8847 24.2071L14.3662 27.692C14.2908 27.797 14.2601 27.9268 14.2801 28.056C14.3001 28.1858 14.3689 28.2995 14.4743 28.3769C14.5304 28.4179 14.5884 28.4455 14.6511 28.461C14.7145 28.4765 14.7786 28.4792 14.8427 28.4691C14.9074 28.459 14.9675 28.4368 15.0228 28.4025C15.0789 28.3682 15.1256 28.3244 15.1637 28.2713C15.165 28.2693 15.1677 28.2659 15.1677 28.2659L17.6661 24.8274C17.8296 24.602 18.0972 24.4741 18.3708 24.4842C18.6478 24.495 18.9014 24.6437 19.0475 24.8812C19.5513 25.6993 19.859 26.7387 19.9624 27.9214ZM33.2817 30.4517C33.1115 29.7366 32.8079 29.0732 32.3794 28.4792H32.3774C31.5559 27.3435 30.1092 26.1958 28.5076 25.408C27.3971 24.8617 26.3074 24.5408 25.3571 24.4661L26.9767 26.7017C27.1456 26.9358 27.2643 27.1955 27.3311 27.4761C27.3971 27.7566 27.4078 28.0425 27.3624 28.3271C27.3171 28.611 27.2183 28.8795 27.0682 29.1244C26.9313 29.3477 26.7552 29.5435 26.5443 29.7063C26.4996 29.7406 26.4522 29.7702 26.4022 29.7944C26.1899 29.9384 25.9584 30.042 25.7141 30.1026C25.4359 30.1712 25.1509 30.184 24.868 30.1389C24.5843 30.0938 24.3174 29.9949 24.0732 29.8436C23.8289 29.6922 23.6201 29.4971 23.4526 29.2623L21.8149 26.9917C21.2837 29.2011 21.7395 32.6793 23.4098 35.0273C24.2834 36.2275 25.568 37.0167 27.0274 37.2481C28.4882 37.4802 29.9517 37.1263 31.1495 36.2524C31.7408 35.8211 32.2346 35.2856 32.6163 34.6599C32.9987 34.0336 33.2503 33.3487 33.3651 32.6228C33.4799 31.8969 33.4518 31.1662 33.2817 30.4517ZM37.7261 19.1411C38.0584 18.4865 38.2566 17.7821 38.3147 17.0487V17.0481C38.3727 16.3154 38.2886 15.5895 38.0644 14.8898C37.602 13.4743 36.621 12.3232 35.303 11.6491C33.9844 10.9743 32.4835 10.8565 31.0768 11.3167C29.7515 11.7507 28.2213 12.778 26.9841 14.0643C26.1212 14.9611 25.4812 15.9071 25.1215 16.7951L27.7575 15.9279C28.0278 15.8384 28.3101 15.8041 28.5957 15.8263C28.88 15.8478 29.1542 15.9259 29.4091 16.0571C29.6641 16.1883 29.887 16.3659 30.0725 16.5859C30.236 16.7796 30.3648 17.003 30.4535 17.2486C30.4896 17.3468 30.5062 17.449 30.5042 17.5513C30.5496 17.7605 30.5643 17.9731 30.5476 18.1844C30.5249 18.471 30.4475 18.7455 30.318 19.0011C30.1879 19.2575 30.0117 19.4815 29.7949 19.6672C29.578 19.8529 29.3304 19.9921 29.0588 20.0803L26.3875 20.9535C27.205 21.4736 28.2914 21.8732 29.5333 22.0959C31.303 22.4134 33.1602 22.3421 34.5022 21.9055C35.1976 21.6794 35.8315 21.3236 36.3874 20.8466C36.9433 20.3696 37.3937 19.7964 37.7261 19.1411ZM21.7689 20.4414C21.7689 21.426 20.9771 22.2242 20.0005 22.2242C19.0238 22.2242 18.232 21.426 18.232 20.4414C18.232 19.4567 19.0238 18.6585 20.0005 18.6585C20.9771 18.6585 21.7689 19.4567 21.7689 20.4414Z" fill="url(#paint0_linear_377_8963)"/>
<defs>
<linearGradient id="paint0_linear_377_8963" x1="24.3569" y1="41.5278" x2="13.0815" y2="-4.29113" gradientUnits="userSpaceOnUse">
<stop stop-color="#E94560"/>
<stop offset="0.450909" stop-color="#FFBAA4"/>
<stop offset="1" stop-color="#FF4024"/>
</linearGradient>
</defs>
</svg>
